<?xml version="1.0" encoding="UTF-8"?>
<svg xmlns="http://www.w3.org/2000/svg" version="1.1" xmlns:inkscape="http://www.inkscape.org/namespaces/inkscape" xmlns:sodipodi="http://sodipodi.sourceforge.net/DTD/sodipodi-0.dtd" xmlns:svg="http://www.w3.org/2000/svg" xmlns:xlink="http://www.w3.org/1999/xlink" viewBox="0 0 322 322.04">
  <!-- Generator: Adobe Illustrator 30.1.0, SVG Export Plug-In . SVG Version: 2.1.1 Build 136)  -->
  <defs>
    <style>
      .st0 {
        clip-path: url(#clippath-21);
      }

      .st1 {
        clip-path: url(#clippath-6);
      }

      .st2 {
        clip-path: url(#clippath-7);
      }

      .st3 {
        clip-path: url(#clippath-17);
      }

      .st4 {
        clip-path: url(#clippath-15);
      }

      .st5 {
        clip-path: url(#clippath-18);
      }

      .st6 {
        clip-path: url(#clippath-4);
      }

      .st7 {
        clip-path: url(#clippath-22);
      }

      .st8 {
        clip-path: url(#clippath-23);
      }

      .st9 {
        clip-path: url(#clippath-9);
      }

      .st10 {
        clip-path: url(#clippath-10);
      }

      .st11 {
        clip-path: url(#clippath-25);
      }

      .st12 {
        clip-path: url(#clippath-27);
      }

      .st13 {
        clip-path: url(#clippath-11);
      }

      .st14, .st15, .st16, .st17 {
        fill: none;
      }

      .st18 {
        clip-path: url(#clippath-1);
      }

      .st19 {
        clip-path: url(#clippath-5);
      }

      .st20 {
        clip-path: url(#clippath-20);
      }

      .st21 {
        clip-path: url(#clippath-8);
      }

      .st15 {
        stroke: #fff;
        stroke-width: 6px;
      }

      .st15, .st16, .st17 {
        stroke-miterlimit: 10;
      }

      .st22 {
        fill: #9a0000;
      }

      .st23 {
        clip-path: url(#clippath-3);
      }

      .st24 {
        clip-path: url(#clippath-26);
      }

      .st25 {
        clip-path: url(#clippath-12);
      }

      .st26 {
        clip-path: url(#clippath-14);
      }

      .st27 {
        clip-path: url(#clippath-19);
      }

      .st16 {
        stroke-width: 3px;
      }

      .st16, .st17 {
        stroke: #9b0000;
      }

      .st28 {
        clip-path: url(#clippath-16);
      }

      .st29 {
        clip-path: url(#clippath-2);
      }

      .st30 {
        clip-path: url(#clippath-13);
      }

      .st17 {
        stroke-width: 1px;
      }

      .st31 {
        clip-path: url(#clippath-24);
      }

      .st32 {
        clip-path: url(#clippath);
      }
    </style>
    <clipPath id="clippath">
      <rect class="st14" x="44.13" y="-30.04" width="481.89" height="680.32"/>
    </clipPath>
    <clipPath id="clippath-1">
      <rect class="st14" x="44.13" y="-30.04" width="481.89" height="680.32"/>
    </clipPath>
    <clipPath id="clippath-2">
      <rect class="st14" x="44.13" y="-30.04" width="481.89" height="680.32"/>
    </clipPath>
    <clipPath id="clippath-3">
      <rect class="st14" x="44.13" y="-30.04" width="481.89" height="680.32"/>
    </clipPath>
    <clipPath id="clippath-4">
      <rect class="st14" x="44.13" y="-30.04" width="481.89" height="680.32"/>
    </clipPath>
    <clipPath id="clippath-5">
      <rect class="st14" x="44.13" y="-30.04" width="481.89" height="680.32"/>
    </clipPath>
    <clipPath id="clippath-6">
      <rect class="st14" x="44.13" y="-30.04" width="481.89" height="680.32"/>
    </clipPath>
    <clipPath id="clippath-7">
      <rect class="st14" x="44.13" y="-30.04" width="481.89" height="680.32"/>
    </clipPath>
    <clipPath id="clippath-8">
      <rect class="st14" x="44.13" y="-30.04" width="481.89" height="680.32"/>
    </clipPath>
    <clipPath id="clippath-9">
      <rect class="st14" x="44.13" y="-30.04" width="481.89" height="680.32"/>
    </clipPath>
    <clipPath id="clippath-10">
      <rect class="st14" x="44.13" y="-30.04" width="481.89" height="680.32"/>
    </clipPath>
    <clipPath id="clippath-11">
      <rect class="st14" x="44.13" y="-30.04" width="481.89" height="680.32"/>
    </clipPath>
    <clipPath id="clippath-12">
      <rect class="st14" x="44.13" y="-30.04" width="481.89" height="680.32"/>
    </clipPath>
    <clipPath id="clippath-13">
      <rect class="st14" x="44.13" y="-30.04" width="481.89" height="680.32"/>
    </clipPath>
    <clipPath id="clippath-14">
      <rect class="st14" x="44.13" y="-30.04" width="481.89" height="680.32"/>
    </clipPath>
    <clipPath id="clippath-15">
      <rect class="st14" x="44.13" y="-30.04" width="481.89" height="680.32"/>
    </clipPath>
    <clipPath id="clippath-16">
      <rect class="st14" x="44.13" y="-30.04" width="481.89" height="680.32"/>
    </clipPath>
    <clipPath id="clippath-17">
      <rect class="st14" x="44.13" y="-30.04" width="481.89" height="680.32"/>
    </clipPath>
    <clipPath id="clippath-18">
      <rect class="st14" x="44.13" y="-30.04" width="481.89" height="680.32"/>
    </clipPath>
    <clipPath id="clippath-19">
      <rect class="st14" x="44.13" y="-30.04" width="481.89" height="680.32"/>
    </clipPath>
    <clipPath id="clippath-20">
      <rect class="st14" x="44.13" y="-30.04" width="481.89" height="680.32"/>
    </clipPath>
    <clipPath id="clippath-21">
      <rect class="st14" x="44.13" y="-30.04" width="481.89" height="680.32"/>
    </clipPath>
    <clipPath id="clippath-22">
      <rect class="st14" x="44.13" y="-30.04" width="481.89" height="680.32"/>
    </clipPath>
    <clipPath id="clippath-23">
      <rect class="st14" x="44.13" y="-30.04" width="481.89" height="680.32"/>
    </clipPath>
    <clipPath id="clippath-24">
      <rect class="st14" x="44.13" y="-30.04" width="481.89" height="680.32"/>
    </clipPath>
    <clipPath id="clippath-25">
      <rect class="st14" x="44.13" y="-30.04" width="481.89" height="680.32"/>
    </clipPath>
    <clipPath id="clippath-26">
      <rect class="st14" x="44.13" y="-30.04" width="481.89" height="680.32"/>
    </clipPath>
    <clipPath id="clippath-27">
      <rect class="st14" x="44.13" y="-30.04" width="481.89" height="680.32"/>
    </clipPath>
  </defs>
  <g id="_图层_1" data-name="图层_1" inkscape:version="1.2 (dc2aedaf03, 2022-05-15)">
    <sodipodi:namedview id="namedview289" bordercolor="#000000" borderopacity="0.25" inkscape:current-layer="图层_1" inkscape:cx="59.220193" inkscape:cy="94.045202" inkscape:deskcolor="#d1d1d1" inkscape:pagecheckerboard="0" inkscape:pageopacity="0.0" inkscape:showpageshadow="2" inkscape:window-height="829" inkscape:window-maximized="1" inkscape:window-width="1440" inkscape:window-x="-8" inkscape:window-y="-8" inkscape:zoom="2.8284271" pagecolor="#ffffff" showgrid="false"/>
    <g id="g54">
      <g id="g12">
        <g class="st32">
          <path id="path10" class="st15" d="M526.02,5.96"/>
        </g>
      </g>
      <g id="g22">
        <g class="st18">
          <path id="path20" class="st17" d="M526.02,3.46"/>
        </g>
      </g>
      <g id="g32">
        <g class="st29">
          <path id="path30" class="st16" d="M526.02,7.46"/>
        </g>
      </g>
      <g id="g42">
        <g class="st23">
          <path id="path40" class="st16" d="M526.02,615.78"/>
        </g>
      </g>
      <g id="g52">
        <g class="st6">
          <path id="path50" class="st17" d="M526.02,619.77"/>
        </g>
      </g>
    </g>
    <g id="g286">
      <g id="g64">
        <g class="st19">
          <path id="path62" class="st22" d="M136.99,224.13l-.11.05c-.59-.32-1.33-.68-2.21-1.07-.86-.39-1.77-.78-2.74-1.17l-.04-.11.18-.4.11-.03c.23.08.46.15.68.23.39.14.65.21.77.21.09,0,.19-.05.3-.16.17-.17.59-.98,1.25-2.43l.74-1.63c.22-.49.49-1.11.82-1.87l.21-.5c.1-.22.1-.35,0-.39-.04-.02-.19-.03-.46-.02-.72,0-1.35.01-1.87.03l-.06-.08c.09-.26.17-.56.24-.89l.03-.05c1.36.2,2.92.36,4.66.46l.09.16c-.13.25-.33.62-.59,1.11-.1.19-.35.7-.74,1.53l-1.19,2.57c-.83,1.84-1.25,2.85-1.25,3.01,0,.12.04.21.11.27.14.11.53.34,1.18.68l.06.1-.18.39Z"/>
        </g>
      </g>
      <g id="g74">
        <g class="st1">
          <path id="path72" class="st22" d="M155.59,220.98c.06-.47-.04-.87-.32-1.19-.27-.33-.68-.52-1.21-.6-.48-.06-.88.02-1.2.25-.29.21-.47.51-.51.87-.05.36.08.72.38,1.06.16.18.41.37.74.57.11.07.29.18.53.32l.41.22c.69-.28,1.08-.78,1.18-1.5M154.94,226.25c.09-.69-.18-1.26-.82-1.7-.42-.29-.87-.56-1.35-.82l-.21-.11c-.83.42-1.29,1.02-1.4,1.81-.06.46-.02.84.13,1.14.33.69.87,1.08,1.63,1.18.53.07.98-.04,1.35-.32.38-.27.6-.67.67-1.18M156.83,225.66c-.08.56-.25,1.04-.53,1.44-.53.76-1.3,1.23-2.3,1.4-.41.07-.9.07-1.46,0-1.2-.16-2.07-.69-2.61-1.59-.24-.4-.32-.9-.24-1.49.1-.72.43-1.28,1.01-1.66.19-.13.59-.29,1.21-.5-1-.68-1.43-1.52-1.3-2.51.15-1.11.82-1.86,2.02-2.22.52-.16,1.09-.2,1.71-.11.92.12,1.61.42,2.08.9.45.46.63,1.01.55,1.64-.12.86-.72,1.49-1.81,1.89.71.38,1.19.8,1.44,1.26.24.43.32.94.23,1.56"/>
        </g>
      </g>
      <g id="g84">
        <g class="st2">
          <path id="path82" class="st22" d="M171.57,221.54c-.12-.88-.36-1.52-.7-1.91-.35-.39-.77-.55-1.26-.48-.61.08-.99.44-1.12,1.07-.07.34-.08.72-.02,1.16.1.74.33,1.29.69,1.65.34.34.75.47,1.24.4.63-.09,1.01-.4,1.16-.93.06-.24.07-.56,0-.96M173.76,221.99c.18,1.27.07,2.36-.32,3.26-.41.95-1.02,1.75-1.83,2.38-.83.66-1.79,1.06-2.87,1.21l-.7-.38.15-.31c.17.03.37.03.6,0,.83-.12,1.52-.49,2.06-1.14.22-.26.41-.58.57-.99.26-.64.38-1.53.35-2.68-.7.77-1.1,1.16-1.19,1.18-.34.16-.71.27-1.11.33-.71.1-1.32-.06-1.83-.46-.55-.44-.88-1.09-1-1.96-.19-1.4.21-2.51,1.21-3.33.47-.39,1.09-.63,1.84-.74,1.43-.2,2.52.26,3.29,1.37.39.56.64,1.31.78,2.26"/>
        </g>
      </g>
      <g id="g94">
        <g class="st21">
          <path id="path92" class="st22" d="M189.36,220.49c-.28-.64-.81-.98-1.58-1.03-.51-.03-1.03-.03-1.58,0h-.23c-.49.8-.57,1.56-.26,2.28.18.42.42.72.71.91.64.42,1.31.47,2.01.17.49-.21.82-.54.99-.97.16-.43.14-.89-.06-1.36M187.17,215.64c-.19-.43-.49-.72-.89-.86s-.85-.1-1.34.12c-.44.19-.74.47-.89.83-.14.34-.14.67.01,1.02.15.34.44.57.87.71.23.07.54.11.93.11h.62l.46-.02c.45-.61.52-1.25.23-1.91M190.67,219c.23.52.32,1.02.29,1.51-.06.93-.48,1.73-1.24,2.39-.31.28-.73.53-1.25.75-1.11.49-2.13.48-3.06,0-.41-.22-.74-.6-.98-1.15-.29-.67-.29-1.32,0-1.95.1-.21.36-.56.78-1.05-1.21-.07-2.01-.56-2.41-1.47-.45-1.03-.26-2.02.57-2.95.36-.41.83-.74,1.41-.99.85-.37,1.6-.47,2.25-.3.62.16,1.06.54,1.32,1.12.35.79.16,1.65-.56,2.56.8-.04,1.43.07,1.89.33.41.24.74.64.99,1.21"/>
        </g>
      </g>
      <g id="g104">
        <g class="st9">
          <path id="path102" class="st22" d="M134.42,226.77c-8.39-3.55-15.92-8.62-22.39-15.09s-11.55-14-15.1-22.39c-3.67-8.68-5.53-17.91-5.53-27.42s1.86-18.73,5.53-27.42c3.55-8.39,8.63-15.92,15.1-22.39s14-11.55,22.39-15.1c8.68-3.67,17.91-5.54,27.42-5.54s18.73,1.86,27.42,5.54c8.39,3.55,15.92,8.63,22.39,15.1,6.47,6.47,11.55,14,15.1,22.39,3.67,8.68,5.53,17.91,5.53,27.42s-1.86,18.74-5.53,27.42c-3.55,8.39-8.63,15.92-15.1,22.39-6.47,6.47-14,11.55-22.39,15.09-8.68,3.67-17.91,5.53-27.42,5.53s-18.74-1.86-27.42-5.53M133.48,94.74c-8.68,3.67-16.47,8.92-23.15,15.61-6.69,6.69-11.94,14.48-15.61,23.16-3.8,8.98-5.73,18.52-5.73,28.36s1.93,19.38,5.73,28.36c3.67,8.67,8.92,16.46,15.61,23.15,6.69,6.69,14.48,11.94,23.15,15.61,8.98,3.8,18.52,5.72,28.35,5.72s19.37-1.93,28.36-5.72c8.68-3.67,16.47-8.92,23.15-15.61,6.69-6.69,11.94-14.48,15.61-23.15,3.8-8.98,5.73-18.52,5.73-28.36s-1.93-19.37-5.73-28.36c-3.67-8.67-8.92-16.47-15.61-23.16s-14.48-11.94-23.15-15.61c-8.98-3.8-18.52-5.73-28.36-5.73s-19.37,1.93-28.35,5.73"/>
        </g>
      </g>
      <g id="g114">
        <g class="st10">
          <path id="path112" class="st22" d="M141.5,210c-6.22-2.63-11.81-6.4-16.6-11.2-4.8-4.8-8.56-10.39-11.19-16.61-2.73-6.44-4.11-13.28-4.11-20.33s1.38-13.9,4.11-20.34c2.62-6.21,6.39-11.8,11.18-16.6,4.8-4.8,10.38-8.56,16.6-11.2,6.44-2.72,13.28-4.1,20.33-4.1s13.9,1.38,20.34,4.1c6.22,2.63,11.81,6.4,16.61,11.2,4.8,4.8,8.57,10.38,11.2,16.6,2.72,6.44,4.1,13.28,4.1,20.34s-1.38,13.89-4.1,20.33c-2.63,6.22-6.4,11.81-11.2,16.61-4.8,4.8-10.39,8.57-16.61,11.2-6.44,2.73-13.28,4.11-20.34,4.11-7.04,0-13.88-1.39-20.32-4.11M140.87,112.23c-6.41,2.71-12.18,6.6-17.12,11.54s-8.83,10.71-11.54,17.12c-2.81,6.64-4.23,13.7-4.23,20.97s1.42,14.32,4.23,20.97c2.71,6.41,6.6,12.17,11.54,17.12,4.95,4.95,10.71,8.83,17.12,11.55,6.64,2.81,13.69,4.23,20.96,4.23s14.33-1.42,20.97-4.23c6.42-2.71,12.18-6.6,17.13-11.55,4.95-4.95,8.83-10.71,11.54-17.12,2.81-6.64,4.23-13.7,4.23-20.97s-1.42-14.33-4.23-20.97c-2.71-6.41-6.6-12.17-11.54-17.12-4.95-4.95-10.71-8.83-17.13-11.54-6.64-2.81-13.7-4.23-20.97-4.23-7.27,0-14.32,1.42-20.96,4.23"/>
        </g>
      </g>
      <g id="g124">
        <g class="st13">
          <path id="path122" class="st22" d="M101.3,182.85c-.67.26-1.12.58-1.34.98-.22.39-.2.94.06,1.63l.2.52,3.93-1.5-.1-.26c-.26-.69-.62-1.15-1.08-1.39-.45-.24-1.01-.23-1.67.02M100.05,180.52c.51-.19.98-.26,1.43-.19.44.07.85.24,1.22.52.38.29.72.65,1.01,1.1.29.44.55.97.78,1.57l.28.73,2.52-.96c.15-.06.27-.14.36-.24s.14-.25.14-.43c0-.1-.02-.25-.05-.46-.04-.21-.07-.38-.11-.52l.5-.19,1.87,4.9-.5.19c-.06-.12-.14-.27-.24-.47-.1-.2-.18-.33-.25-.39-.13-.14-.25-.22-.37-.23-.12-.02-.26.01-.43.07l-6.33,2.42c-.15.06-.27.13-.35.22-.09.09-.14.24-.14.43-.01.14.01.31.05.53.03.21.06.37.09.47l-.49.19-1.89-4.95c-.44-1.16-.59-2.09-.44-2.81.12-.71.58-1.21,1.34-1.5"/>
        </g>
      </g>
      <g id="g134">
        <g class="st25">
          <path id="path132" class="st22" d="M97.5,165.44l.06.53c-.35.17-.69.44-1.02.79-.34.36-.52.7-.55,1.02-.02.14-.01.32,0,.56s.04.43.06.59l.16,1.37,3.67-.43-.11-.97c-.03-.24-.08-.46-.16-.65s-.22-.36-.4-.51c-.11-.09-.31-.17-.58-.25s-.5-.11-.7-.12l-.06-.52,3.97-.46.06.52c-.19.05-.41.14-.69.29-.27.14-.46.27-.55.38-.14.17-.24.35-.27.56-.04.21-.04.44-.01.7l.11.97,2.76-.32c.29-.03.51-.08.68-.14.16-.06.28-.15.36-.28.07-.12.11-.28.11-.48s-.01-.46-.05-.8c-.02-.15-.04-.34-.07-.56s-.07-.41-.11-.57c-.04-.18-.1-.36-.16-.52-.07-.16-.14-.27-.24-.34-.24-.19-.61-.39-1.09-.61s-.84-.35-1.07-.41l-.06-.48,2.99-.16,1.04,8.94-.52.06c-.02-.13-.06-.29-.11-.51-.05-.21-.1-.36-.15-.45-.09-.16-.2-.27-.31-.31-.12-.05-.26-.06-.43-.04l-6.73.79c-.16.02-.29.06-.39.12-.1.06-.18.19-.24.39-.04.12-.07.29-.09.51s-.03.38-.03.49l-.53.06-.99-8.45,2.43-.3Z"/>
        </g>
      </g>
      <g id="g144">
        <g class="st30">
          <path id="path142" class="st22" d="M106.11,147.68l-.54,3.75c-.95.44-1.76.85-2.41,1.22s-1.47.85-2.46,1.43l-.05.35,3,.43c.16.02.3.01.42-.03s.23-.14.33-.31c.05-.08.1-.19.16-.34.06-.15.11-.31.15-.46l.52.07-.72,5.05-.52-.08c.01-.12.02-.29.03-.52.01-.22.01-.38-.01-.48-.04-.17-.11-.29-.21-.37s-.24-.13-.41-.15l-6.74-.96c-.16-.02-.29-.01-.41.02-.11.04-.23.14-.34.31-.08.13-.16.29-.23.48s-.12.34-.15.46l-.52-.08.75-5.22.52.08c-.01.14-.01.31-.01.5,0,.2.01.37.03.51.03.18.11.31.22.39.12.08.25.12.4.15l3.21.46.04-.28c-.27-.39-.59-.85-.97-1.38-.38-.53-.7-.94-.95-1.23-.35-.41-.63-.72-.83-.92-.21-.2-.4-.31-.57-.34-.08,0-.15.06-.21.22s-.13.4-.19.74l-.52-.07.59-4.13.52.07c-.02.5.01.93.09,1.29.08.35.25.72.5,1.09.36.53.67.98.94,1.33s.61.81,1.04,1.36c.58-.35,1.3-.77,2.14-1.26.84-.49,1.67-.98,2.47-1.47.21-.12.41-.27.6-.44.2-.17.36-.36.5-.58.07-.1.12-.22.17-.36s.08-.26.1-.36l.53.06Z"/>
        </g>
      </g>
      <g id="g154">
        <g class="st26">
          <path id="path152" class="st22" d="M109.74,138.15l-1.98,4.95-.49-.2c.04-.12.09-.29.16-.51.07-.23.11-.39.11-.49,0-.18-.04-.32-.12-.42s-.2-.18-.36-.24l-6.32-2.53c-.14-.06-.28-.08-.41-.07-.13,0-.26.08-.39.21-.08.08-.18.22-.31.39-.12.18-.22.34-.29.47l-.49-.2,1.98-4.95.49.2c-.04.13-.08.29-.13.49s-.08.37-.09.52c-.01.18.03.33.12.43s.21.18.36.24l6.31,2.53c.15.06.29.08.42.07.13,0,.26-.09.39-.22.07-.07.17-.2.28-.39.12-.19.21-.35.27-.49l.49.21Z"/>
        </g>
      </g>
      <g id="g164">
        <g class="st4">
          <path id="path162" class="st22" d="M111.29,118.66c-.06.11-.15.27-.25.48-.11.21-.16.43-.15.67,0,.21.1.42.31.65.2.23.53.51,1,.85l5.59,4.01-.71.98-9.52.51,3.66,2.63c.46.33.82.54,1.1.65s.52.14.73.08c.15-.04.34-.15.55-.32.22-.17.38-.31.5-.43l.43.31-2.41,3.35-.43-.31c.09-.15.18-.33.27-.55.09-.21.14-.41.14-.6,0-.22-.1-.43-.27-.64-.18-.21-.52-.49-1.02-.86l-3.7-2.66c-.18-.13-.38-.23-.58-.29s-.41-.07-.61-.04c-.22.04-.42.11-.61.23s-.38.26-.58.45l-.43-.31,2.11-2.94,8.35-.45-2.97-2.13c-.47-.34-.85-.56-1.12-.66s-.51-.13-.72-.07c-.16.04-.35.15-.56.31s-.37.3-.48.41l-.42-.3,2.39-3.34.41.33Z"/>
        </g>
      </g>
      <g id="g174">
        <g class="st28">
          <path id="path172" class="st22" d="M127.93,110.75c-.1.1-.19.19-.26.27s-.15.2-.25.34c-.11.16-.14.31-.1.46.04.14.11.27.2.39l.7.87c.14.18.26.32.35.42s.2.23.34.38c-.18.49-.54,1.11-1.08,1.85s-1.09,1.34-1.67,1.8c-.54.43-1.12.76-1.72.98-.61.21-1.22.3-1.85.26-.62-.04-1.23-.22-1.83-.54-.59-.32-1.14-.79-1.65-1.42-.47-.58-.81-1.2-1.01-1.85s-.27-1.3-.19-1.95c.07-.64.29-1.26.65-1.87s.85-1.16,1.48-1.66c.42-.34.86-.61,1.3-.79.44-.19.83-.32,1.17-.39l.09-.55.46-.37,2.25,2.7-.46.37c-.93-.61-1.74-.96-2.43-1.06s-1.32.08-1.89.54c-.68.54-.96,1.26-.85,2.14s.58,1.84,1.41,2.88c.88,1.1,1.75,1.81,2.61,2.14s1.62.23,2.27-.3c.31-.25.54-.51.71-.8s.27-.54.3-.77l-1.22-1.51c-.1-.13-.21-.21-.32-.26s-.27-.05-.45,0c-.14.04-.31.1-.49.2s-.33.18-.45.25l-.33-.41,3.89-3.13.32.39Z"/>
        </g>
      </g>
      <g id="g184">
        <g class="st3">
          <path id="path182" class="st22" d="M150.3,96.38c-.12.05-.3.13-.53.24s-.41.24-.54.4c-.14.15-.2.38-.2.68,0,.3.09.73.24,1.3l.92,3.45c.27,1.01.14,1.92-.38,2.72-.53.8-1.36,1.35-2.49,1.66-1.32.35-2.43.33-3.31-.07s-1.47-1.14-1.75-2.2l-1.27-4.75c-.04-.15-.1-.27-.19-.37-.09-.09-.23-.16-.42-.2-.13-.02-.28-.03-.45-.02-.17.01-.32.02-.42.04l-.14-.51,4.87-1.3.14.51c-.14.05-.28.1-.41.16-.14.06-.28.14-.41.22-.15.1-.24.21-.26.35-.02.14-.02.28.02.43l1.25,4.68c.25.92.63,1.53,1.15,1.84s1.16.36,1.94.15c.76-.2,1.3-.59,1.61-1.17s.35-1.31.11-2.21l-.84-3.14c-.15-.56-.3-.96-.45-1.22s-.32-.42-.51-.5c-.14-.07-.36-.1-.67-.1s-.51,0-.63.02l-.14-.53,4.05-1.08.11.52Z"/>
        </g>
      </g>
      <g id="g194">
        <g class="st5">
          <path id="path192" class="st22" d="M168.44,95.69c-.13.01-.31.04-.54.07s-.45.12-.64.26c-.17.12-.29.33-.36.62s-.11.73-.12,1.3l-.1,6.88-1.21-.02-5.86-7.51-.06,4.51c-.01.56.02.98.09,1.28.07.29.19.51.35.65.12.1.31.19.58.27.26.08.48.13.63.16v.53s-4.14-.06-4.14-.06v-.53c.19-.01.39-.04.61-.09.23-.05.42-.13.57-.23.18-.13.3-.32.37-.59.07-.26.11-.71.12-1.33l.06-4.55c0-.23-.03-.44-.1-.64s-.17-.38-.32-.52c-.15-.16-.33-.28-.54-.37-.2-.09-.44-.16-.69-.22v-.53s3.62.05,3.62.05l5.14,6.59.05-3.66c.01-.58-.03-1.01-.1-1.3-.07-.28-.19-.5-.35-.64-.13-.11-.32-.2-.57-.28s-.46-.13-.61-.16v-.52s4.11.06,4.11.06v.52Z"/>
        </g>
      </g>
      <g id="g204">
        <g class="st27">
          <path id="path202" class="st22" d="M178.79,107.19l-5.16-1.34.13-.51c.12.02.3.05.53.09.23.04.4.06.5.04.18-.02.31-.08.4-.17.09-.09.15-.22.2-.39l1.71-6.59c.04-.15.04-.29.02-.41-.03-.13-.11-.25-.26-.36-.09-.07-.24-.16-.43-.26s-.36-.18-.51-.23l.13-.51,5.16,1.34-.13.51c-.13-.02-.3-.05-.51-.07-.2-.03-.38-.04-.52-.03-.19.01-.32.07-.41.18-.09.11-.15.23-.19.39l-1.71,6.59c-.04.16-.04.3-.01.42s.12.25.27.36c.08.06.22.14.43.23.2.09.37.16.52.21l-.16.51Z"/>
        </g>
      </g>
      <g id="g214">
        <g class="st20">
          <path id="path212" class="st22" d="M197.7,105.9c-.14-.06-.28-.1-.41-.13-.14-.03-.29-.04-.46-.03-.22.01-.41.04-.57.11-.15.07-.33.17-.53.32-.27.21-.66.52-1.16.93s-1.08.88-1.72,1.4c-.58.47-1.2.99-1.88,1.55s-1.33,1.11-1.95,1.63l-1.2-.64c.17-1.66.34-3.35.51-5.07.17-1.72.28-2.91.34-3.59.01-.25,0-.45-.03-.59-.03-.15-.11-.32-.24-.53-.1-.15-.19-.26-.27-.35-.09-.08-.21-.18-.37-.3l.25-.47,4.6,2.44-.24.46c-.47-.18-.8-.29-.99-.31-.19-.03-.3.01-.35.09-.02.05-.04.09-.05.15s-.03.13-.04.23c-.06.42-.13,1.12-.22,2.1-.09.98-.24,2.47-.44,4.47.94-.79,1.72-1.45,2.36-2.01.64-.55,1.2-1.03,1.69-1.46.24-.2.45-.4.63-.59s.3-.33.36-.45c.07-.13.03-.28-.11-.47-.14-.18-.45-.43-.94-.74l.25-.48,3.44,1.82-.26.51Z"/>
        </g>
      </g>
      <g id="g224">
        <g class="st0">
          <path id="path222" class="st22" d="M208.15,117.06l-.39-.36c.15-.36.24-.78.26-1.27.02-.49-.07-.86-.25-1.13-.08-.11-.2-.25-.38-.42-.17-.17-.32-.3-.43-.41l-1.02-.93-2.5,2.73.72.66c.18.16.37.29.55.39.19.09.4.13.63.12.14-.01.34-.07.6-.19.25-.12.46-.24.61-.37l.39.36-2.7,2.95-.39-.36c.11-.16.22-.38.33-.66.11-.29.17-.5.17-.65,0-.22-.05-.42-.16-.6s-.26-.36-.45-.54l-.72-.66-1.87,2.05c-.2.21-.34.4-.42.55s-.11.3-.09.45c.03.14.1.28.23.44.13.15.31.34.56.57.12.11.26.23.42.38.17.15.32.27.46.36.15.11.31.2.46.28s.29.11.4.1c.31-.02.71-.1,1.22-.25.5-.15.86-.28,1.08-.39l.36.33-2.15,2.08-6.64-6.07.36-.39c.1.08.24.18.42.31s.31.21.41.24c.18.06.32.07.44.03s.24-.13.35-.25l4.57-5c.11-.12.18-.24.22-.35s.01-.27-.07-.46c-.05-.12-.14-.27-.27-.45s-.23-.31-.3-.39l.36-.39,6.28,5.74-1.66,1.82Z"/>
        </g>
      </g>
      <g id="g234">
        <g class="st7">
          <path id="path232" class="st22" d="M216.65,128.19c.54-.35.84-.75.89-1.21s-.1-.97-.46-1.53l-.29-.45-3.38,2.18.28.43c.36.56.78.89,1.27,1.01s1.05-.03,1.69-.43M213.13,135.92l-2-3.1c.47-1.06.84-1.92,1.09-2.59.26-.67.53-1.47.83-2.4l-.19-.3-2.44,1.58c-.13.09-.23.19-.29.3s-.08.26-.05.45c.02.09.06.22.12.4.07.17.13.32.19.44l-.44.29-2.79-4.32.45-.29c.08.1.19.24.33.41s.25.28.33.34c.15.11.29.15.42.14s.26-.06.4-.15l5.69-3.67c.14-.09.24-.18.3-.28s.08-.25.04-.46c-.03-.16-.08-.33-.15-.51-.07-.19-.13-.33-.18-.44l.44-.29,2.92,4.53c.65,1.01.99,1.89,1.01,2.61.02.73-.29,1.3-.93,1.72-.57.37-1.13.5-1.68.4-.55-.1-1.14-.42-1.77-.96-.17.47-.36,1.02-.58,1.65s-.43,1.27-.65,1.94c-.07.21-.15.49-.23.83s-.1.6-.05.79c.03.1.08.23.15.38s.12.25.15.31l-.44.25Z"/>
        </g>
      </g>
      <g id="g244">
        <g class="st8">
          <path id="path242" class="st22" d="M215.82,143.81c-.19-.56-.29-1.1-.32-1.63-.03-.53,0-.99.08-1.39l-.6-.29-.18-.54,3.26-1.18.19.56c-.27.23-.54.5-.82.8-.28.31-.51.63-.7.98-.2.36-.33.73-.4,1.11s-.03.79.11,1.22c.19.58.49.98.87,1.2s.79.25,1.22.11c.35-.12.6-.35.76-.69.15-.34.22-.82.21-1.43,0-.4,0-.76,0-1.1s0-.65.02-.95c.04-.7.24-1.27.59-1.71.35-.45.81-.77,1.37-.96.36-.12.72-.16,1.1-.11.38.04.75.17,1.11.38.34.2.66.5.96.88.3.39.54.84.71,1.36.17.51.26,1,.27,1.49,0,.49,0,.88-.07,1.18l.51.26.19.56-3.09,1.1-.19-.56c.29-.24.58-.5.86-.79.29-.29.51-.57.68-.84.18-.29.29-.6.35-.92.05-.32.02-.67-.1-1.04-.15-.46-.41-.8-.77-1.01s-.73-.25-1.11-.12c-.36.12-.61.35-.76.68s-.21.8-.21,1.4v1.08c0,.37,0,.69,0,.98-.03.7-.2,1.29-.52,1.75-.31.46-.78.8-1.41,1.01-.39.13-.81.17-1.24.1-.43-.06-.82-.21-1.17-.44-.38-.25-.72-.58-1.02-.98-.27-.41-.52-.91-.72-1.51"/>
        </g>
      </g>
      <g id="g254">
        <g class="st31">
          <path id="path252" class="st22" d="M218.97,158.58l-.55-5.3.53-.05c.02.12.05.29.1.53.04.23.08.39.13.48.09.16.19.26.3.31.12.05.26.07.43.05l6.77-.7c.15-.02.28-.06.39-.13s.19-.2.25-.37c.03-.11.06-.28.09-.49.02-.22.04-.4.04-.55l.53-.05.55,5.3-.53.05c-.03-.13-.06-.3-.11-.5s-.1-.37-.16-.5c-.08-.17-.18-.28-.31-.32-.13-.05-.27-.06-.43-.04l-6.77.7c-.16.02-.3.06-.4.13-.11.07-.19.2-.24.38-.03.1-.05.26-.07.48s-.02.41,0,.56l-.53.03Z"/>
        </g>
      </g>
      <g id="g264">
        <g class="st11">
          <path id="path262" class="st22" d="M224.86,174.09l.06-.52c.42-.09.88-.26,1.38-.51s.78-.5.85-.76c.03-.14.07-.32.11-.52.04-.21.07-.39.09-.54l.04-.32-7.47-.89c-.16-.02-.31-.01-.44.04-.13.04-.24.15-.33.31-.05.1-.11.26-.18.47-.07.21-.12.4-.16.55l-.52-.06.63-5.34.52.06c0,.13,0,.32,0,.56s0,.4.03.49c.05.18.13.31.25.39.12.07.25.12.42.14l7.54.89.04-.32c.02-.15.03-.33.04-.55,0-.21.02-.39.02-.53,0-.26-.22-.58-.65-.94s-.84-.64-1.23-.82l.06-.53,2.73.32-1.1,9.24-2.72-.31Z"/>
        </g>
      </g>
      <g id="g274">
        <g class="st24">
          <path id="path272" class="st22" d="M221.73,190.72c.04-.16.07-.31.08-.45s0-.28-.02-.42c-.03-.22-.1-.43-.2-.63-.1-.2-.23-.41-.37-.62-.3-.43-.62-.88-.98-1.36-.35-.48-.75-1-1.18-1.57-.27-.37-.49-.62-.66-.74-.17-.13-.49-.28-.97-.46l-1.27-.49c-.15-.06-.3-.08-.43-.07-.14.01-.27.09-.4.22-.06.06-.15.2-.29.41-.14.21-.23.37-.28.48l-.49-.19,1.92-5.02.49.19c-.04.12-.09.3-.15.53s-.09.4-.09.5c.01.18.06.32.15.42s.22.18.38.24l1.58.6c.14.05.26.1.37.13.11.04.2.06.28.06.09,0,.21-.01.36-.03s.35-.05.59-.09c.69-.11,1.35-.21,1.98-.32.63-.11,1.21-.21,1.76-.32.29-.05.53-.13.72-.22.2-.09.37-.2.52-.31.11-.09.21-.21.3-.36.1-.15.17-.29.23-.41l.49.19-1.97,5.14-.49-.19c.17-.48.26-.81.27-1s-.03-.3-.12-.33c-.05-.02-.15-.02-.31-.02-.16.01-.42.03-.77.08-.33.04-.79.1-1.38.2-.59.09-1.28.21-2.07.35.96,1.29,1.64,2.18,2.03,2.67s.64.76.75.8c.14.05.29.01.43-.14s.3-.41.47-.79l.5.19-1.27,3.32-.49-.17Z"/>
        </g>
      </g>
      <g id="g284">
        <g class="st12">
          <path id="path282" class="st22" d="M192.63,187.05c-1.64-3.83-3.51-7.37-5.55-10.51-2.15-3.3-4.49-6.17-6.96-8.54-2.67-2.54-5.5-4.51-8.44-5.87-1.93-.89-3.91-1.51-5.92-1.86v-2.3c0-2.16-1.75-3.91-3.91-3.91s-3.92,1.75-3.92,3.91v2.3c-2.01.35-3.99.97-5.92,1.86-2.94,1.35-5.78,3.33-8.44,5.87-2.48,2.36-4.82,5.24-6.96,8.54-2.04,3.14-3.91,6.67-5.55,10.51-.82,1.92.07,4.14,1.99,4.97,1.92.82,4.14-.06,4.97-1.98,2.97-6.93,6.7-12.65,10.79-16.55,2.94-2.81,6-4.64,9.14-5.47v6.16c0,2.12-1.56,2.95-2.28,3.39-.23.14-.73.43-.96.58-1.45.94-3.12,2.4-4.68,4.4-2.82,3.61-5.01,8.53-6.17,13.86-.44,2.04.85,4.06,2.89,4.5,2.04.45,4.06-.85,4.5-2.89.92-4.24,2.61-8.08,4.74-10.81,1.09-1.4,3.3-3.74,5.87-3.74s4.78,2.34,5.87,3.74c2.13,2.73,3.82,6.57,4.74,10.81.44,2.04,2.46,3.34,4.5,2.89,2.04-.44,3.34-2.46,2.89-4.5-1.16-5.33-3.35-10.25-6.17-13.86-1.56-2-3.23-3.46-4.68-4.4-.24-.15-.73-.44-.96-.58-.72-.44-2.27-1.27-2.27-3.39v-6.16c3.14.83,6.2,2.66,9.14,5.47,4.09,3.9,7.82,9.62,10.79,16.55.82,1.92,3.05,2.81,4.97,1.98,1.89-.82,2.77-3.05,1.95-4.97M165.19,124.25v24.47c0,1.29.93,3.16,2.95,3.59,4.54.97,9.73,3.62,14.42,7.49,4.6,3.8,8.92,8.78,12.84,14.82,1.14,1.75,3.48,2.25,5.23,1.11,1.12-.73,1.72-1.94,1.72-3.18,0-.71-.2-1.42-.61-2.06-4.34-6.68-9.18-12.25-14.37-16.53-4.61-3.81-9.43-6.53-14.36-8.14v-8.69c7.1,1.95,14.49,5.98,20.86,11.44,1.59,1.36,3.98,1.17,5.33-.41,1.36-1.59,1.18-3.98-.41-5.34-4.07-3.49-8.71-6.58-13.41-8.95-4.15-2.09-8.3-3.61-12.38-4.55v-5.07c0-2.16-1.75-3.91-3.92-3.91-2.13-.01-3.89,1.74-3.89,3.91M154.56,120.33c-2.16,0-3.91,1.75-3.91,3.91v5.07c-4.08.93-8.23,2.46-12.38,4.55-4.7,2.37-9.34,5.47-13.41,8.95-1.59,1.36-1.77,3.75-.41,5.34s3.75,1.77,5.34.41c6.37-5.46,13.77-9.49,20.86-11.44v8.69c-4.93,1.61-9.75,4.33-14.36,8.14-5.19,4.29-10.03,9.85-14.37,16.53-.41.64-.61,1.35-.61,2.06,0,1.24.61,2.45,1.72,3.18,1.75,1.14,4.09.64,5.23-1.11,3.92-6.04,8.24-11.02,12.84-14.82,4.69-3.87,9.88-6.52,14.42-7.49,2.02-.43,2.95-2.3,2.95-3.59v-24.46c.01-2.17-1.74-3.92-3.91-3.92M211.39,161.86c0,27.36-22.18,49.55-49.55,49.55s-49.55-22.19-49.55-49.55c0-27.37,22.18-49.55,49.55-49.55s49.55,22.18,49.55,49.55"/>
        </g>
      </g>
    </g>
  </g>
</svg>