<?xml version="1.0" encoding="UTF-8"?>
<svg id="_图层_1" data-name="图层_1" xmlns="http://www.w3.org/2000/svg" version="1.1" viewBox="0 0 300 300">
  <!-- Generator: Adobe Illustrator 30.1.0, SVG Export Plug-In . SVG Version: 2.1.1 Build 136)  -->
  <defs>
    <style>
      .st0 {
        fill: #f1f9f5;
      }

      .st1 {
        fill: #009049;
      }

      .st2 {
        fill: #028f49;
      }

      .st3 {
        fill: #019049;
      }

      .st4 {
        fill: #fafcfb;
      }

      .st5 {
        fill: #fdfdfd;
      }
    </style>
  </defs>
  <path class="st2" d="M211.51,165.48c-10.01,14.71-43.9,53.05-60.29,53.37-6.5.13-12.65-4.06-17.91-7.66-19.38-13.26-35.72-30.17-48.79-49.48-4.55-6.72-4.75-13.58-.35-20.59,14.24-22.72,33.73-42.55,56.38-56.99,6.19-3.94,12.27-3.98,18.22-.05,20.12,13.3,38.17,29.44,52.92,48.62,10.04,13.05,9.52,18.53-.18,32.78Z"/>
  <path class="st0" d="M182.39,191.6l-64.46-.2c-2.89,0-5.26-4.01-7.19-6.89l78.11.09c-1.69,2.5-3.81,4.94-6.45,7Z"/>
  <path class="st4" d="M157.87,210.73c-8.88,6.88-26.3-6.59-32.51-12.61l49.38-.03c-4.89,5.23-10.37,9-16.87,12.64Z"/>
  <g>
    <path class="st5" d="M195.42,177.84l-91.45.04c-6.52-6.92-12.63-14.16-16.25-23.02-2.12-5.19,1.19-10.06,3.28-14.82,13.45-19.83,30.17-37.41,50.51-50.02,5.24-3.25,10.87-3.58,16.06-.22,19.61,12.7,37.04,28.67,50.8,47.45,4.52,6.16,5.79,12.54,2.21,19.17-4.13,7.65-8.85,14.54-15.16,21.42Z"/>
    <path class="st1" d="M148.36,140.8c-12.42,0-20.76-10.34-20.83-21.08-.08-11.31,8.17-21.34,20.18-21.67s20.94,9.24,21.37,20.5c.44,11.31-7.84,22.26-20.72,22.25Z"/>
    <path class="st3" d="M145.48,168.65l-36.91.33c-.69-12.99.02-25.05.29-38.13,20.08.51,35.9,16.57,36.62,37.8Z"/>
    <path class="st3" d="M191.21,168.69l-36.74.21c-.41-20.53,15.63-37.36,36.21-38.19l.52,37.98Z"/>
  </g>
</svg>